<svg width="48" height="48" viewBox="0 0 48 48" fill="none" xmlns="http://www.w3.org/2000/svg">
<path id="Union" fill-rule="evenodd" clip-rule="evenodd" d="M22.8571 22.8506L22.8571 21.0286V11.4286V1.82857V0C22.2407 0 21.6294 0.0498045 21.0286 0.147185C18.6753 0.528617 16.4833 1.63998 14.7759 3.34735C12.6326 5.49062 11.4286 8.39752 11.4286 11.4286V11.4286C8.39752 11.4286 5.49062 12.6327 3.34735 14.7759C1.63998 16.4833 0.528617 18.6753 0.147185 21.0286C0.0498045 21.6294 0 22.2407 0 22.8572H1.82857H11.4286H21.0286L22.8571 22.8571V22.8506ZM11.5759 13.2583C11.5269 13.2575 11.4777 13.2572 11.4286 13.2572C8.88249 13.2572 6.4407 14.2686 4.64035 16.0689C3.27716 17.4321 2.36627 19.1631 2.00429 21.0286H11.4286H16.6561C15.9825 20.5935 15.3517 20.0855 14.7759 19.5098C13.0688 17.8027 11.9575 15.6111 11.5759 13.2583ZM20.8072 20.8072C19.0263 20.4179 17.378 19.5259 16.0689 18.2168C14.7598 16.9077 13.8678 15.2594 13.4785 13.4785C15.2594 13.8678 16.9077 14.7598 18.2168 16.0689C19.5259 17.378 20.4179 19.0263 20.8072 20.8072ZM21.0286 16.6561C20.5935 15.9825 20.0855 15.3517 19.5098 14.7759C17.8027 13.0688 15.6111 11.9576 13.2583 11.576C13.2575 11.5269 13.2571 11.4777 13.2571 11.4286C13.2571 8.88249 14.2686 6.4407 16.0689 4.64035C17.4321 3.27716 19.1631 2.36627 21.0286 2.00429V11.4286L21.0286 16.6561ZM25.1429 22.8505V21.0286V11.4286V1.82857V0C25.7593 0 26.3706 0.0498045 26.9714 0.147185C29.3247 0.528617 31.5167 1.63998 33.2241 3.34735C35.3674 5.49062 36.5714 8.39752 36.5714 11.4286C39.6025 11.4286 42.5094 12.6327 44.6526 14.7759C46.36 16.4833 47.4714 18.6753 47.8528 21.0286C47.9502 21.6294 48 22.2407 48 22.8572H46.1714H36.5714H26.9714L25.1429 22.8571V22.8505ZM34.7429 11.4286C34.7429 11.4777 34.7425 11.5269 34.7417 11.576C32.3889 11.9576 30.1973 13.0688 28.4902 14.7759C27.9145 15.3517 27.4065 15.9825 26.9714 16.6561V11.4286V2.00429C28.8369 2.36627 30.5679 3.27716 31.9311 4.64035C33.7314 6.4407 34.7429 8.88249 34.7429 11.4286ZM29.7832 16.0689C28.4741 17.378 27.5821 19.0263 27.1928 20.8072C28.9737 20.4179 30.622 19.5259 31.9311 18.2168C33.2402 16.9077 34.1322 15.2594 34.5215 13.4785C32.7406 13.8678 31.0923 14.7598 29.7832 16.0689ZM33.2241 19.5098C32.6483 20.0855 32.0175 20.5935 31.3439 21.0286H36.5714H45.9957C45.6337 19.1631 44.7228 17.4321 43.3597 16.0689C41.5593 14.2686 39.1175 13.2572 36.5714 13.2572C36.5223 13.2572 36.4731 13.2575 36.4241 13.2583C36.0425 15.6111 34.9312 17.8027 33.2241 19.5098ZM22.8571 26.9714L22.8571 25.1494V25.1429L21.0286 25.1428H11.4286H1.82857H0C0 25.7593 0.0498045 26.3706 0.147185 26.9714C0.528617 29.3247 1.63998 31.5167 3.34735 33.2241C5.49062 35.3673 8.39752 36.5714 11.4286 36.5714C11.4286 39.6025 12.6326 42.5094 14.7759 44.6526C16.4833 46.36 18.6753 47.4714 21.0286 47.8528C21.6294 47.9502 22.2407 48 22.8571 48V46.1714V36.5714V26.9714ZM13.2583 36.424C13.2575 36.4731 13.2571 36.5223 13.2571 36.5714C13.2571 39.1175 14.2686 41.5593 16.0689 43.3597C17.4321 44.7228 19.1631 45.6337 21.0286 45.9957V36.5714L21.0286 31.3439C20.5935 32.0175 20.0855 32.6483 19.5098 33.2241C17.8027 34.9312 15.6111 36.0424 13.2583 36.424ZM20.8072 27.1928C20.4179 28.9737 19.5259 30.622 18.2168 31.9311C16.9077 33.2402 15.2594 34.1322 13.4785 34.5215C13.8678 32.7406 14.7598 31.0923 16.0689 29.7832C17.378 28.4741 19.0263 27.5821 20.8072 27.1928ZM16.6561 26.9714C15.9825 27.4065 15.3517 27.9145 14.7759 28.4902C13.0688 30.1973 11.9575 32.3889 11.5759 34.7417C11.5269 34.7425 11.4777 34.7428 11.4286 34.7428C8.88249 34.7428 6.4407 33.7314 4.64035 31.9311C3.27716 30.5679 2.36627 28.8369 2.00429 26.9714H11.4286H16.6561ZM25.1429 25.1495V26.9714V36.5714V46.1714V48C25.7593 48 26.3706 47.9502 26.9714 47.8528C29.3247 47.4714 31.5167 46.36 33.2241 44.6526C35.3674 42.5094 36.5714 39.6025 36.5714 36.5714C39.6025 36.5714 42.5094 35.3673 44.6526 33.2241C46.36 31.5167 47.4714 29.3247 47.8528 26.9714C47.9502 26.3706 48 25.7593 48 25.1428H46.1714H36.5714H26.9714L25.1429 25.1429V25.1495ZM36.5714 34.7428C36.5223 34.7428 36.4731 34.7425 36.4241 34.7417C36.0425 32.3889 34.9312 30.1973 33.2241 28.4902C32.6483 27.9145 32.0175 27.4065 31.3439 26.9714H36.5714H45.9957C45.6337 28.8369 44.7228 30.5679 43.3597 31.9311C41.5593 33.7314 39.1175 34.7428 36.5714 34.7428ZM31.9311 29.7832C30.622 28.4741 28.9737 27.5821 27.1928 27.1928C27.5821 28.9737 28.4741 30.622 29.7832 31.9311C31.0923 33.2402 32.7406 34.1322 34.5215 34.5215C34.1322 32.7406 33.2402 31.0923 31.9311 29.7832ZM28.4902 33.2241C27.9145 32.6483 27.4065 32.0175 26.9714 31.3439V36.5714V45.9957C28.8369 45.6337 30.5679 44.7228 31.9311 43.3597C33.7314 41.5593 34.7429 39.1175 34.7429 36.5714C34.7429 36.5223 34.7425 36.4731 34.7417 36.424C32.3889 36.0424 30.1973 34.9312 28.4902 33.2241ZM5.5 7.62857C6.67558 7.62857 7.62857 6.67558 7.62857 5.5C7.62857 4.32442 6.67558 3.37143 5.5 3.37143C4.32442 3.37143 3.37143 4.32442 3.37143 5.5C3.37143 6.67558 4.32442 7.62857 5.5 7.62857ZM5.5 9C7.433 9 9 7.433 9 5.5C9 3.567 7.433 2 5.5 2C3.567 2 2 3.567 2 5.5C2 7.433 3.567 9 5.5 9ZM44.6286 5.5C44.6286 6.67558 43.6756 7.62857 42.5 7.62857C41.3244 7.62857 40.3714 6.67558 40.3714 5.5C40.3714 4.32442 41.3244 3.37143 42.5 3.37143C43.6756 3.37143 44.6286 4.32442 44.6286 5.5ZM46 5.5C46 7.433 44.433 9 42.5 9C40.567 9 39 7.433 39 5.5C39 3.567 40.567 2 42.5 2C44.433 2 46 3.567 46 5.5ZM42.5 44.6286C43.6756 44.6286 44.6286 43.6756 44.6286 42.5C44.6286 41.3244 43.6756 40.3714 42.5 40.3714C41.3244 40.3714 40.3714 41.3244 40.3714 42.5C40.3714 43.6756 41.3244 44.6286 42.5 44.6286ZM42.5 46C44.433 46 46 44.433 46 42.5C46 40.567 44.433 39 42.5 39C40.567 39 39 40.567 39 42.5C39 44.433 40.567 46 42.5 46ZM7.62857 42.5C7.62857 43.6756 6.67558 44.6286 5.5 44.6286C4.32442 44.6286 3.37143 43.6756 3.37143 42.5C3.37143 41.3244 4.32442 40.3714 5.5 40.3714C6.67558 40.3714 7.62857 41.3244 7.62857 42.5ZM9 42.5C9 44.433 7.433 46 5.5 46C3.567 46 2 44.433 2 42.5C2 40.567 3.567 39 5.5 39C7.433 39 9 40.567 9 42.5Z" fill="#BAA598"/>
</svg>
