<svg width="907" height="680" viewBox="0 0 907 680" fill="none" xmlns="http://www.w3.org/2000/svg">
<rect width="907" height="680" fill="white"/>
<path fill-rule="evenodd" clip-rule="evenodd" d="M453.716 282.686L453.716 278.791V258.343V237.895V234C452.403 234 451.101 234.106 449.821 234.314C444.808 235.126 440.139 237.493 436.503 241.13C431.938 245.695 429.373 251.887 429.373 258.343V258.343H429.373C422.917 258.343 416.725 260.908 412.16 265.473C408.523 269.109 406.156 273.778 405.344 278.791C405.136 280.071 405.03 281.373 405.03 282.686H408.925H429.373H449.821L453.716 282.686V282.686H453.716ZM429.687 262.24C429.582 262.239 429.478 262.238 429.373 262.238C423.95 262.238 418.749 264.392 414.914 268.227C412.01 271.13 410.07 274.817 409.299 278.791H429.373L440.508 278.791C439.073 277.864 437.729 276.782 436.503 275.556C432.867 271.92 430.5 267.252 429.687 262.24ZM449.349 278.319C445.556 277.49 442.045 275.59 439.257 272.802C436.468 270.013 434.569 266.503 433.739 262.709C437.533 263.539 441.043 265.438 443.832 268.227C446.62 271.015 448.52 274.526 449.349 278.319ZM449.821 269.478C448.894 268.043 447.812 266.699 446.586 265.473C442.95 261.837 438.282 259.47 433.27 258.657C433.269 258.552 433.268 258.448 433.268 258.343C433.268 252.92 435.422 247.719 439.257 243.884C442.16 240.98 445.847 239.04 449.821 238.269V258.343V269.478ZM482.927 278.791H471.792C473.227 277.864 474.571 276.782 475.797 275.556C479.433 271.92 481.8 267.252 482.613 262.24C482.718 262.239 482.822 262.238 482.927 262.238C488.35 262.238 493.551 264.392 497.386 268.227C500.29 271.13 502.23 274.817 503.001 278.791L482.927 278.791ZM500.14 265.473C495.575 260.908 489.383 258.343 482.927 258.343C482.927 251.887 480.362 245.695 475.797 241.13C472.161 237.493 467.492 235.126 462.479 234.314C461.199 234.106 459.897 234 458.584 234V237.895V258.343V278.791L458.584 282.641L458.584 282.686H462.479H482.927H503.375L507.27 282.686C507.27 281.373 507.164 280.071 506.956 278.791C506.144 273.778 503.777 269.109 500.14 265.473ZM462.479 258.343V269.477C463.406 268.043 464.488 266.699 465.714 265.473C469.35 261.837 474.018 259.47 479.03 258.657C479.031 258.552 479.032 258.448 479.032 258.343C479.032 252.92 476.878 247.719 473.043 243.884C470.14 240.98 466.453 239.04 462.479 238.269V258.343ZM468.468 268.227C465.68 271.015 463.78 274.526 462.951 278.319C466.744 277.49 470.255 275.59 473.043 272.802C475.832 270.013 477.731 266.503 478.561 262.709C474.767 263.539 471.257 265.438 468.468 268.227ZM453.716 291.449L453.716 287.554H453.716V287.554H449.821L429.373 287.554H408.925H405.03C405.03 288.867 405.136 290.169 405.344 291.449C406.156 296.462 408.523 301.131 412.16 304.767C416.725 309.332 422.917 311.897 429.373 311.897C429.373 318.353 431.938 324.545 436.503 329.11C440.139 332.747 444.808 335.114 449.821 335.926C451.101 336.134 452.403 336.24 453.716 336.24V332.345V311.897V291.449ZM433.27 311.583C433.269 311.688 433.268 311.792 433.268 311.897C433.268 317.32 435.422 322.521 439.257 326.356C442.16 329.26 445.847 331.2 449.821 331.971V311.897V300.762C448.894 302.197 447.812 303.541 446.586 304.767C442.95 308.403 438.282 310.77 433.27 311.583ZM449.349 291.921C448.52 295.714 446.62 299.225 443.832 302.013C441.043 304.802 437.533 306.701 433.739 307.531C434.569 303.737 436.468 300.227 439.257 297.438C442.045 294.65 445.556 292.75 449.349 291.921ZM440.508 291.449C439.073 292.376 437.729 293.458 436.503 294.684C432.867 298.32 430.5 302.988 429.687 308C429.582 308.001 429.478 308.002 429.373 308.002C423.95 308.002 418.749 305.848 414.914 302.013C412.01 299.11 410.07 295.423 409.299 291.449H429.373L440.508 291.449ZM458.584 287.554L458.584 287.599L458.584 291.449V311.897V332.345V336.24C459.897 336.24 461.199 336.134 462.479 335.926C467.492 335.114 472.161 332.747 475.797 329.11C480.362 324.545 482.927 318.353 482.927 311.897C489.383 311.897 495.575 309.332 500.14 304.767C503.777 301.131 506.144 296.462 506.956 291.449C507.164 290.169 507.27 288.867 507.27 287.554H503.375L482.927 287.554H462.479H458.584ZM479.032 311.897C479.032 311.792 479.031 311.688 479.03 311.583C474.018 310.77 469.35 308.403 465.714 304.767C464.488 303.541 463.406 302.197 462.479 300.763V311.897V331.971C466.453 331.2 470.14 329.26 473.043 326.356C476.878 322.521 479.032 317.32 479.032 311.897ZM468.468 302.013C471.257 304.802 474.767 306.701 478.561 307.531C477.731 303.737 475.832 300.227 473.043 297.438C470.255 294.65 466.744 292.75 462.951 291.921C463.78 295.714 465.68 299.225 468.468 302.013ZM475.797 294.684C479.433 298.32 481.8 302.988 482.613 308C482.718 308.001 482.822 308.002 482.927 308.002C488.35 308.002 493.551 305.848 497.386 302.013C500.29 299.11 502.23 295.423 503.001 291.449L482.927 291.449H471.792C473.227 292.376 474.571 293.458 475.797 294.684ZM416.745 250.249C419.249 250.249 421.279 248.219 421.279 245.715C421.279 243.211 419.249 241.181 416.745 241.181C414.241 241.181 412.211 243.211 412.211 245.715C412.211 248.219 414.241 250.249 416.745 250.249ZM416.745 253.17C420.862 253.17 424.2 249.832 424.2 245.715C424.2 241.598 420.862 238.26 416.745 238.26C412.628 238.26 409.29 241.598 409.29 245.715C409.29 249.832 412.628 253.17 416.745 253.17ZM500.089 245.715C500.089 248.219 498.059 250.249 495.555 250.249C493.051 250.249 491.021 248.219 491.021 245.715C491.021 243.211 493.051 241.181 495.555 241.181C498.059 241.181 500.089 243.211 500.089 245.715ZM503.01 245.715C503.01 249.832 499.672 253.17 495.555 253.17C491.438 253.17 488.1 249.832 488.1 245.715C488.1 241.598 491.438 238.26 495.555 238.26C499.672 238.26 503.01 241.598 503.01 245.715ZM495.555 329.059C498.059 329.059 500.089 327.029 500.089 324.525C500.089 322.021 498.059 319.991 495.555 319.991C493.051 319.991 491.021 322.021 491.021 324.525C491.021 327.029 493.051 329.059 495.555 329.059ZM495.555 331.98C499.672 331.98 503.01 328.642 503.01 324.525C503.01 320.408 499.672 317.07 495.555 317.07C491.438 317.07 488.1 320.408 488.1 324.525C488.1 328.642 491.438 331.98 495.555 331.98ZM421.279 324.525C421.279 327.029 419.249 329.059 416.745 329.059C414.241 329.059 412.211 327.029 412.211 324.525C412.211 322.021 414.241 319.991 416.745 319.991C419.249 319.991 421.279 322.021 421.279 324.525ZM424.2 324.525C424.2 328.642 420.862 331.98 416.745 331.98C412.628 331.98 409.29 328.642 409.29 324.525C409.29 320.408 412.628 317.07 416.745 317.07C420.862 317.07 424.2 320.408 424.2 324.525Z" fill="#BAA598"/>
<path d="M130.733 381.452C130.733 378.423 132.027 375.993 134.615 374.163C137.202 372.269 140.421 371.323 144.271 371.323C148.12 371.323 150.992 372.143 152.885 373.784C153.264 373.216 153.453 372.553 153.453 371.796H155.915V381.168H153.453C153.201 378.707 152.16 376.813 150.329 375.488C148.499 374.1 146.385 373.405 143.987 373.405C141.588 373.405 139.632 373.91 138.117 374.92C136.603 375.867 135.845 377.192 135.845 378.896C135.845 380.6 136.54 382.115 137.928 383.44C139.38 384.702 142.283 386.28 146.637 388.173C150.74 389.814 153.58 391.487 155.157 393.191C156.798 394.895 157.619 397.009 157.619 399.533C157.619 403.068 156.356 405.876 153.832 407.959C151.371 409.978 148.373 410.988 144.839 410.988C141.368 410.988 138.307 410.262 135.656 408.811C134.899 408.369 134.268 407.927 133.763 407.485C133.068 408.306 132.721 409.284 132.721 410.42H130.449V400.196H133.1C133.731 402.784 135.088 404.866 137.171 406.444C139.253 408.022 141.936 408.811 145.217 408.811C148.562 408.811 150.866 407.801 152.128 405.781C152.507 405.087 152.696 404.298 152.696 403.415C152.696 401.584 152.033 400.038 150.708 398.776C149.446 397.451 147.237 396.22 144.081 395.084C138.654 393.064 135.025 390.982 133.195 388.836C131.554 386.943 130.733 384.481 130.733 381.452ZM170.344 408.432H175.361V373.784H170.344V371.796H187.1V373.784H182.177V408.432H187.1V410.42H170.344V408.432ZM198.584 408.432H203.222V373.784H198.489V371.796H211.648L223.008 399.912L234.368 371.796H247.053V373.784H242.13V408.432H247.526V410.42H230.77V408.432H235.314L235.409 374.825L221.398 409.852H220.357L205.494 374.731V408.432H210.038V410.42H198.584V408.432ZM257.422 408.432H261.871V373.784H257.516V371.796H273.894C279.132 371.796 282.95 372.869 285.348 375.015C287.746 377.16 288.946 380.221 288.946 384.197C288.946 388.11 287.683 391.329 285.159 393.853C282.634 396.315 278.911 397.545 273.988 397.545H268.592V408.432H275.03V410.42H257.422V408.432ZM273.326 395.747C277.365 395.747 280.015 393.538 281.278 389.12C281.719 387.605 281.94 385.996 281.94 384.292C281.94 377.287 279.1 373.784 273.42 373.784H268.592V395.747H273.326ZM299.833 408.432H305.229V373.784H301.064V371.796H316.495V373.784H312.045V408.432H319.808C324.226 408.432 326.877 406.412 327.76 402.373C328.013 401.174 328.202 399.944 328.328 398.681H330.316V410.42H299.833V408.432ZM341.81 408.432H346.828L346.922 373.784H341.81V371.796H374.376V382.777H372.482C372.419 381.389 372.293 380.158 372.104 379.085C371.978 378.012 371.662 377.097 371.157 376.34C370.21 374.762 368.222 373.91 365.193 373.784H353.644V389.593H359.986C361.375 389.593 362.479 389.341 363.3 388.836C364.183 388.331 364.657 387.195 364.72 385.428C364.783 385.049 364.814 384.671 364.814 384.292H366.992V397.261H364.814C364.814 396.883 364.783 396.441 364.72 395.936C364.657 394.043 364.183 392.844 363.3 392.339C362.479 391.834 361.375 391.581 359.986 391.581H353.644V408.432H364.436C368.854 408.432 371.567 406.412 372.577 402.373C372.83 401.174 372.987 399.944 373.05 398.681H375.038V410.42H341.81V408.432ZM388.766 408.432H393.121V373.784H388.766V371.796H407.889C411.865 371.796 414.8 372.711 416.693 374.541C418.586 376.308 419.533 378.738 419.533 381.831C419.533 384.923 417.987 387.258 414.894 388.836C414.011 389.341 413.064 389.72 412.054 389.972C415.336 390.351 417.829 391.392 419.533 393.096C421.237 394.8 422.089 396.883 422.089 399.344C422.089 402.752 420.827 405.466 418.302 407.485C415.841 409.442 412.307 410.42 407.7 410.42H388.766V408.432ZM406.09 389.404C410.697 389.404 413.001 386.848 413.001 381.736C413.001 379.148 412.559 377.287 411.676 376.151C410.603 374.573 408.52 373.784 405.428 373.784H399.937V389.404H406.09ZM405.712 408.432C408.804 408.432 411.139 407.706 412.717 406.255C414.358 404.803 415.178 402.72 415.178 400.007C415.178 396.031 413.632 393.38 410.54 392.055C409.341 391.55 407.952 391.297 406.374 391.297H399.937V408.432H405.712ZM451.342 371.796C460.998 371.796 465.826 375.046 465.826 381.547C465.826 384.513 464.911 386.88 463.081 388.647C461.314 390.351 458.947 391.455 455.981 391.96C459.957 392.591 462.671 394.611 464.122 398.019C464.69 399.407 465.195 400.953 465.637 402.657C466.079 404.298 466.457 405.434 466.773 406.065C467.593 407.643 468.761 408.432 470.275 408.432H471.222L471.317 410.515H467.719C464.438 410.515 462.229 410.073 461.093 409.189C459.957 408.306 459.073 406.602 458.442 404.077C457.874 401.49 457.306 399.502 456.738 398.113C456.233 396.662 455.381 395.4 454.182 394.327C453.046 393.191 451.531 392.623 449.638 392.623H444.999V408.432H450.869V410.42H434.113V408.432H438.183L438.278 373.784H434.113V371.796H451.342ZM450.869 390.919C456.044 390.919 458.631 387.921 458.631 381.925C458.631 379.275 458.032 377.255 456.833 375.867C455.697 374.478 453.551 373.784 450.395 373.784H444.999V390.919H450.869ZM481.353 396.125C480.974 394.484 480.785 392.812 480.785 391.108C480.785 387.7 481.51 384.481 482.962 381.452C484.477 378.423 486.654 375.993 489.494 374.163C492.397 372.269 495.868 371.323 499.907 371.323C506.092 371.323 510.92 373.374 514.391 377.476C517.484 381.2 519.03 385.775 519.03 391.203C519.03 396.63 517.389 401.269 514.107 405.119C510.889 408.905 506.187 410.83 500.002 410.893C495.963 410.956 492.397 410.041 489.305 408.148C485.202 405.56 482.552 401.553 481.353 396.125ZM508.995 402.941C509.626 401.805 510.258 400.259 510.889 398.303C511.52 396.346 511.835 394.295 511.835 392.149C511.835 384.639 510.1 379.243 506.629 375.961C504.798 374.257 502.558 373.405 499.907 373.405C495.742 373.405 492.65 375.267 490.63 378.991C488.863 382.209 488.011 386.217 488.074 391.013C488.137 395.747 489.021 399.723 490.725 402.941C492.807 406.854 495.837 408.811 499.813 408.811C503.789 408.811 506.85 406.854 508.995 402.941ZM531.443 373.784H527.751V371.796H544.034V373.784H539.016L548.483 401.711L558.423 371.796H560.222L571.203 401.616L580.291 373.784H575.463V371.796H586.823V373.784H582.942L570.446 410.988H568.079L557.192 382.967L547.726 410.988H545.454L531.443 373.784ZM594.636 408.432H599.085V373.784H594.636V371.796H606.185L626.538 402.184V373.784H621.71V371.796H633.638V373.784H629.094V410.42H624.361L601.546 376.908V408.432H606.658V410.42H594.636V408.432ZM645.511 408.432H649.866V373.784H645.511V371.796H664.634C668.61 371.796 671.545 372.711 673.438 374.541C675.331 376.308 676.278 378.738 676.278 381.831C676.278 384.923 674.732 387.258 671.639 388.836C670.756 389.341 669.809 389.72 668.799 389.972C672.081 390.351 674.574 391.392 676.278 393.096C677.982 394.8 678.834 396.883 678.834 399.344C678.834 402.752 677.572 405.466 675.047 407.485C672.586 409.442 669.052 410.42 664.445 410.42H645.511V408.432ZM662.835 389.404C667.442 389.404 669.746 386.848 669.746 381.736C669.746 379.148 669.304 377.287 668.421 376.151C667.348 374.573 665.265 373.784 662.173 373.784H656.682V389.404H662.835ZM662.457 408.432C665.549 408.432 667.884 407.706 669.462 406.255C671.103 404.803 671.923 402.72 671.923 400.007C671.923 396.031 670.377 393.38 667.285 392.055C666.085 391.55 664.697 391.297 663.119 391.297H656.682V408.432H662.457ZM691.994 396.125C691.615 394.484 691.426 392.812 691.426 391.108C691.426 387.7 692.151 384.481 693.603 381.452C695.118 378.423 697.295 375.993 700.135 374.163C703.038 372.269 706.509 371.323 710.548 371.323C716.733 371.323 721.561 373.374 725.032 377.476C728.125 381.2 729.671 385.775 729.671 391.203C729.671 396.63 728.03 401.269 724.748 405.119C721.53 408.905 716.828 410.83 710.643 410.893C706.604 410.956 703.038 410.041 699.946 408.148C695.843 405.56 693.193 401.553 691.994 396.125ZM719.636 402.941C720.267 401.805 720.899 400.259 721.53 398.303C722.161 396.346 722.476 394.295 722.476 392.149C722.476 384.639 720.741 379.243 717.27 375.961C715.439 374.257 713.199 373.405 710.548 373.405C706.383 373.405 703.291 375.267 701.271 378.991C699.504 382.209 698.652 386.217 698.715 391.013C698.778 395.747 699.662 399.723 701.366 402.941C703.448 406.854 706.478 408.811 710.454 408.811C714.43 408.811 717.491 406.854 719.636 402.941ZM739.907 408.432H744.261L756 392.623L743.599 373.784H739.907V371.796H756V373.784H751.267L760.449 387.511L770.673 373.784H766.413V371.796H777.773V373.784H773.419L761.775 389.593L774.555 408.432H777.963V410.42H761.964V408.432H766.603L757.325 394.611L747.101 408.432H751.74V410.42H739.907V408.432Z" fill="#BAA598"/>
</svg>
